<svg width="30" height="30" viewBox="0 0 30 30" fill="none" xmlns="http://www.w3.org/2000/svg">
<path d="M29.5611 26.3681H3.80493V19.9125C3.80493 15.8109 7.12991 12.4862 11.2315 12.4862H22.1345C26.2361 12.4862 29.5611 15.8109 29.5611 19.9125V26.3681Z" fill="#D2FFFF"/>
<path d="M22.1423 12.4862H18.6875C22.7847 12.4862 26.1063 15.8075 26.1063 19.9047V26.3681H29.561V19.9047C29.561 15.8075 26.2395 12.4862 22.1423 12.4862Z" fill="#9AF1FF"/>
<path d="M24.2038 28.7568H9.16211C8.83847 28.7568 8.57617 28.4945 8.57617 28.1708V19.7546C8.57617 19.4309 8.83847 19.1686 9.16211 19.1686H24.2038C24.5275 19.1686 24.7898 19.4309 24.7898 19.7546V28.1708C24.7898 28.4945 24.5275 28.7568 24.2038 28.7568Z" fill="#1DC2FF"/>
<path d="M24.2045 19.1686H22.102V27.0008C22.102 27.324 21.8399 27.586 21.5167 27.586H8.57617V28.1713C8.57617 28.4947 8.83824 28.7568 9.16165 28.7568H24.2045C24.5277 28.7568 24.7898 28.4947 24.7898 28.1713V19.7539C24.7898 19.4307 24.5277 19.1686 24.2045 19.1686Z" fill="#00A2FF"/>
<path d="M22.7437 9.12024C22.7437 8.32533 22.3116 7.67256 21.7599 7.60023V5.5325C21.7599 3.20476 19.8728 1.31786 17.5451 1.31786H15.2562C12.9285 1.31786 11.0416 3.20476 11.0416 5.5325V7.60023C10.4898 7.67256 10.0579 8.32533 10.0579 9.12024C10.0579 9.9314 10.5076 10.5947 11.0755 10.6439C11.2343 11.917 11.9603 13.0131 12.9931 13.672C13.0684 14.8325 14.0326 15.7505 15.2121 15.7505H17.5892C18.7687 15.7505 19.7332 14.8325 19.8083 13.672C20.8412 13.0131 21.5681 11.917 21.727 10.6439C22.2944 10.5938 22.7437 9.93094 22.7437 9.12024Z" fill="#F7C6BA"/>
<path d="M16.4086 12.1868C17.5418 12.1868 18.4603 11.2683 18.4603 10.1351H14.3569C14.3569 11.2683 15.2757 12.1868 16.4086 12.1868Z" fill="white"/>
<path d="M6.62508 28.7593H2.62329C2.29965 28.7593 2.03735 28.497 2.03735 28.1733V22.5914C2.03735 22.2677 2.29965 22.0054 2.62329 22.0054H6.62508C6.94872 22.0054 7.21102 22.2677 7.21102 22.5914V28.1733C7.21102 28.497 6.94872 28.7593 6.62508 28.7593Z" fill="#FF6914"/>
<path d="M6.62577 22.0054H5.92332V27.3755C5.92332 27.6986 5.66125 27.9607 5.33807 27.9607H2.03735V28.174C2.03735 28.4972 2.29942 28.7593 2.62261 28.7593H6.62577C6.94895 28.7593 7.21102 28.4972 7.21102 28.174V22.5909C7.21102 22.2675 6.94895 22.0054 6.62577 22.0054Z" fill="#ED500A"/>
<path d="M2.33689 27.4322H1.99929C0.896763 27.4322 0 26.5355 0 25.4332V25.3217C0 24.2192 0.896763 23.3224 1.99929 23.3224H2.33689C2.57928 23.3224 2.77589 23.519 2.77589 23.7614C2.77589 24.004 2.57928 24.2004 2.33689 24.2004H1.99929C1.38108 24.2004 0.877994 24.7035 0.877994 25.3217V25.4332C0.877994 26.0514 1.38108 26.5542 1.99929 26.5542H2.33689C2.57928 26.5542 2.77589 26.7508 2.77589 26.9932C2.77589 27.2358 2.57928 27.4322 2.33689 27.4322Z" fill="#FF6914"/>
<path d="M22.7437 9.12024C22.7437 8.32533 22.3115 7.67256 21.7599 7.60023V5.53205C21.7599 3.74172 20.6428 2.21324 19.068 1.60258C19.8955 2.37209 20.4137 3.46958 20.4137 4.68838V9.27382C20.4137 11.6013 18.5267 13.4882 16.1992 13.4882H13.9097C13.3725 13.4882 12.8594 13.3868 12.387 13.2035C13.1393 13.9032 14.1473 14.3319 15.256 14.3319H17.5455C17.5794 14.3319 17.6128 14.3303 17.6465 14.3294C17.2402 15.1431 16.4142 15.7105 15.4517 15.748C15.4853 15.7491 15.519 15.7505 15.5529 15.7505H17.5892C18.7687 15.7505 19.733 14.8325 19.8083 13.6723C20.8412 13.0133 21.5672 11.9172 21.7258 10.6439C22.2939 10.5945 22.7437 9.9314 22.7437 9.12024Z" fill="#F4ADA5"/>
<path d="M15.8645 4.24183H16.9366C19.0581 4.24183 20.8912 5.4746 21.7596 7.26286V5.53204C21.7596 3.20454 19.8729 1.31786 17.5454 1.31786H15.2557C12.9282 1.31786 11.0415 3.20454 11.0415 5.53204V7.26286C11.9099 5.4746 13.743 4.24183 15.8645 4.24183Z" fill="#005CA0"/>
<path d="M21.7406 5.13722C21.6348 4.00013 21.0569 2.93903 20.1613 2.22927C20.1551 2.22446 20.1489 2.21965 20.1427 2.21462C19.9839 2.09033 19.8159 1.97681 19.6399 1.87587C19.6373 1.87427 19.6348 1.8729 19.6323 1.87152C19.4522 1.76852 19.2638 1.67857 19.0683 1.60281C19.0683 1.60258 19.0681 1.60258 19.0681 1.60258C19.8955 2.37209 20.4135 3.46958 20.4135 4.68861V5.52312C20.9738 6.00148 21.4345 6.59314 21.7598 7.26286V5.53204C21.7596 5.40112 21.7527 5.26768 21.7406 5.13722Z" fill="#005182"/>
<path d="M16.4087 12.6258C15.0354 12.6258 13.918 11.5086 13.918 10.1351C13.918 9.89272 14.1146 9.69611 14.357 9.69611H18.4604C18.7028 9.69611 18.8994 9.89272 18.8994 10.1351C18.8996 11.5086 17.7822 12.6258 16.4087 12.6258ZM14.8568 10.5743C15.0484 11.2507 15.6717 11.7478 16.4087 11.7478C17.1459 11.7478 17.7689 11.2507 17.9607 10.5743H14.8568Z" fill="black"/>
<path d="M22.1423 12.0469H21.7803C21.9315 11.7148 22.0444 11.3635 22.114 10.9991C22.7425 10.7526 23.1826 10.0104 23.1826 9.12022C23.1826 8.28137 22.7798 7.56062 22.1989 7.27978V5.53203C22.1989 2.96626 20.1112 0.878845 17.5455 0.878845H15.256C12.6899 0.878845 10.6025 2.96626 10.6025 5.53203V7.28001C10.0216 7.56062 9.6188 8.28137 9.6188 9.12022C9.6188 10.0104 10.0589 10.7526 10.6872 10.9991C10.9136 12.1808 11.5883 13.2252 12.5787 13.9226C12.7714 15.2106 13.8877 16.1895 15.212 16.1895H17.5892C18.9135 16.1895 20.03 15.2106 20.2225 13.9226C20.6212 13.642 20.9675 13.3044 21.2552 12.9252H22.1423C25.991 12.9252 29.1221 16.0563 29.1221 19.9047V25.9291H25.2291V19.7541C25.2291 19.1892 24.7695 18.7296 24.2046 18.7296H9.16172C8.59684 18.7296 8.13747 19.1892 8.13747 19.7541V25.9291H7.65018V22.5909C7.65018 22.026 7.19058 21.5664 6.6257 21.5664H4.24417V19.9047C4.24417 16.6223 6.47624 13.8233 9.67236 13.098C9.90879 13.0444 10.0571 12.8091 10.0033 12.5727C9.94976 12.3363 9.71447 12.1882 9.47803 12.2417C7.76897 12.6297 6.2176 13.5979 5.10981 14.9684C3.98531 16.3596 3.36595 18.1126 3.36595 19.9047V21.5664H2.62254C2.05766 21.5664 1.59829 22.026 1.59829 22.5909V23.3629C0.687335 23.549 0 24.3565 0 25.3215V25.4329C0 26.3981 0.687335 27.2056 1.59806 27.3917V28.1738C1.59806 28.7387 2.05766 29.1983 2.62254 29.1983H6.62547C7.19035 29.1983 7.64995 28.7387 7.64995 28.1738V26.8071H8.13724V28.1713C8.13724 28.7362 8.59684 29.1955 9.16149 29.1955H24.2044C24.7692 29.1955 25.2288 28.7362 25.2288 28.1713V26.8071H29.5609C29.8035 26.8071 29.9999 26.6105 29.9999 26.3681V19.9047C30.0001 15.572 26.4751 12.0469 22.1423 12.0469ZM21.2902 10.5897C21.1511 11.705 20.5248 12.6935 19.572 13.3019C19.4541 13.3772 19.379 13.504 19.3701 13.6436C19.3095 14.5788 18.5274 15.3113 17.5892 15.3113H15.212C14.274 15.3113 13.492 14.5788 13.4313 13.6436C13.4221 13.504 13.3473 13.3772 13.2294 13.3019C12.2766 12.6935 11.6501 11.705 11.5112 10.5897C11.4856 10.3841 11.3199 10.2246 11.1136 10.2065C10.8159 10.1806 10.497 9.73798 10.497 9.12022C10.497 8.51849 10.8081 8.07354 11.0985 8.03555C11.3171 8.00694 11.4808 7.82063 11.4808 7.60021V7.36767C12.3263 5.70804 13.9969 4.68082 15.8648 4.68082H16.9369C17.4642 4.68082 17.9831 4.76367 18.4786 4.92732C18.7091 5.00331 18.9572 4.87811 19.0332 4.64786C19.1092 4.4176 18.984 4.16926 18.7537 4.09327C18.1692 3.90055 17.5578 3.80282 16.9369 3.80282H15.8648C14.7556 3.80282 13.6773 4.11708 12.7469 4.71171C12.2713 5.01567 11.8461 5.38555 11.4808 5.80738V5.53226C11.4808 3.45057 13.1743 1.75684 15.256 1.75684H17.5455C19.6274 1.75684 21.3209 3.45057 21.3209 5.53226V5.80852C21.0799 5.52997 20.813 5.27362 20.5241 5.04565C20.3337 4.89551 20.0577 4.92801 19.9075 5.11844C19.7574 5.30887 19.7899 5.5849 19.9803 5.73505C20.5374 6.1745 20.9991 6.73733 21.3209 7.36721V7.60044C21.3209 7.82086 21.4843 8.00717 21.7029 8.03578C21.9936 8.07377 22.3046 8.51872 22.3046 9.12045C22.3046 9.73798 21.9858 10.1809 21.688 10.2067C21.4816 10.2246 21.3159 10.3841 21.2902 10.5897ZM1.59806 26.4787C1.17783 26.3169 0.877994 25.9099 0.877994 25.4332V25.3217C0.877994 24.8449 1.1776 24.4377 1.59806 24.2759V26.4787ZM6.77195 28.174C6.77195 28.2546 6.70626 28.3203 6.62547 28.3203H2.62254C2.54197 28.3203 2.47628 28.2546 2.47628 28.174V22.5909C2.47628 22.5101 2.54197 22.4446 2.62254 22.4446H6.62547C6.70626 22.4446 6.77195 22.5101 6.77195 22.5909V28.174ZM24.3508 28.1713C24.3508 28.2521 24.2851 28.3175 24.2046 28.3175H9.16172C9.08092 28.3175 9.01523 28.2521 9.01523 28.1713V19.7541C9.01523 19.6733 9.08092 19.6076 9.16172 19.6076H24.2046C24.2851 19.6076 24.3508 19.6733 24.3508 19.7541V28.1713Z" fill="black"/>
<path d="M14.6379 7.95751C14.6379 8.38941 14.2877 8.73983 13.8558 8.73983C13.4237 8.73983 13.0735 8.38941 13.0735 7.95751C13.0735 7.52538 13.4237 7.17519 13.8558 7.17519C14.2877 7.17519 14.6379 7.52538 14.6379 7.95751Z" fill="#005CA0"/>
<path d="M19.5285 7.95751C19.5285 8.38941 19.1781 8.73983 18.7462 8.73983C18.3141 8.73983 17.9639 8.38941 17.9639 7.95751C17.9639 7.52538 18.3141 7.17519 18.7462 7.17519C19.1781 7.17519 19.5285 7.52538 19.5285 7.95751Z" fill="#005CA0"/>
<path d="M14.6379 7.95751C14.6379 8.38941 14.2877 8.73983 13.8558 8.73983C13.4237 8.73983 13.0735 8.38941 13.0735 7.95751C13.0735 7.52538 13.4237 7.17519 13.8558 7.17519C14.2877 7.17519 14.6379 7.52538 14.6379 7.95751Z" fill="black"/>
<path d="M19.5285 7.95751C19.5285 8.38941 19.1781 8.73983 18.7462 8.73983C18.3141 8.73983 17.9639 8.38941 17.9639 7.95751C17.9639 7.52538 18.3141 7.17519 18.7462 7.17519C19.1781 7.17519 19.5285 7.52538 19.5285 7.95751Z" fill="black"/>
</svg>
