<svg width="30" height="30" viewBox="0 0 30 30" fill="none" xmlns="http://www.w3.org/2000/svg">
<g clip-path="url(#clip0)">
<path d="M29.5 19.5V29.5H13.5V19.5C13.5 17.843 14.843 16.5 16.5 16.5H26.5C28.157 16.5 29.5 17.843 29.5 19.5Z" fill="#4DB5FF"/>
<path d="M22.782 25.692L23 27L21.5 29L20.017 27.023C18.25 27.671 16.3821 28.002 14.5 28C14.164 28 13.831 27.986 13.5 27.966V29.5H29.5V19.5C29.5 19.0715 29.4075 18.648 29.229 18.2585C27.9105 21.3495 25.6555 23.9495 22.782 25.692Z" fill="#3596D8"/>
<path d="M21 21H22L23 27L21.5 29L20 27L21 21Z" fill="#235087"/>
<path d="M16.0001 8.5H15C14.4475 8.5 14 8.94748 14 9.50002C14 10.0525 14.4475 10.5 15 10.5H16.0001V8.5Z" fill="#FFD4B0"/>
<path d="M26.9998 8.5H27.9998C28.5523 8.5 28.9998 8.94748 28.9998 9.50002C28.9998 10.0525 28.5523 10.5 27.9998 10.5H26.9998V8.5Z" fill="#FFD4B0"/>
<path d="M21.5 18.5L23.5 16.5H26.5L23.5 20.5L21.5 18.5Z" fill="#B7E5FF"/>
<path d="M21.5 18.5L19.5 16.5H16.5L19.5 20.5L21.5 18.5Z" fill="#B7E5FF"/>
<path d="M20 20L21.5 18.5L23 20L22 21H21L20 20Z" fill="#235087"/>
<path d="M14.4997 20.5H0.499756V29.5H14.4997V20.5Z" fill="#FFA511"/>
<path d="M14.4997 24.5H0.499756V25.5H14.4997V24.5Z" fill="#FFDC13"/>
<path d="M0.999736 28.9999C0.832217 28.9999 0.666221 28.9919 0.499756 28.9875V29.5H14.4997V25.5H11.3272C8.36521 27.7745 4.73421 29.005 0.999736 28.9999Z" fill="#F08015"/>
<path d="M12.5178 24.5H14.4998V22.3275C13.9028 23.1075 13.2398 23.834 12.5178 24.5Z" fill="#F08015"/>
<path d="M11.3274 25.5H14.4999V24.5H12.5179C12.1369 24.8515 11.7399 25.185 11.3274 25.5Z" fill="#E5AF17"/>
<path d="M8.49998 25H6.5V27H8.49998V25Z" fill="#FFDC13"/>
<path d="M23.5 16.5V15.1195C25.609 14.296 26.9985 12.2645 27 9.99996V4.5H16V10C16.0015 12.2645 17.391 14.296 19.5 15.1195V16.5L21.5 18.5L23.5 16.5Z" fill="#FFD4B0"/>
<path d="M20 0.499969C17.791 0.499969 16 2.29095 16 4.49999V6.49997H20.5C21.6046 6.49997 22.5 5.60448 22.5 4.49999H27V0.499969H20Z" fill="#235087"/>
<path d="M20.5 10H19.5V9.50003C19.5 9.22405 19.276 9.00005 19 9.00005C18.724 9.00005 18.5 9.22405 18.5 9.50003V10H17.5V9.50003C17.5 8.67152 18.1715 8.00003 19 8.00003C19.8285 8.00003 20.5 8.67152 20.5 9.50003V10Z" fill="#235087"/>
<path d="M25.5 10H24.5V9.50003C24.5 9.22405 24.276 9.00005 24 9.00005C23.724 9.00005 23.5 9.22405 23.5 9.50003V10H22.5V9.50003C22.5 8.67152 23.1715 8.00003 24 8.00003C24.8285 8.00003 25.5 8.67152 25.5 9.50003V10Z" fill="#235087"/>
<path d="M21.5002 14C20.3957 14 19.5002 13.1045 19.5002 12V11.5H20.5003V12C20.5003 12.5525 20.9477 13 21.5003 13C22.0528 13 22.5002 12.5525 22.5002 12V11.5H23.5003V12C23.5003 13.1045 22.6047 14 21.5002 14Z" fill="#EF2648"/>
<path d="M21.5002 15.5C20.8157 15.499 20.1372 15.37 19.5002 15.1195V15.993C20.5088 16.757 21.7708 17.107 23.0288 16.9715L23.5003 16.5V15.1195C22.8632 15.37 22.1847 15.499 21.5002 15.5Z" fill="#EDC4A2"/>
<path d="M21.4999 29L22.9999 27L22.7818 25.692C21.9053 26.2235 20.9793 26.6695 20.0168 27.023L21.4999 29Z" fill="#163768"/>
<path d="M26.5009 16H24.0009V15.45C25.8104 14.6295 27.0909 12.96 27.4154 11H28.0009C28.8295 11 29.5009 10.3285 29.5009 9.49998C29.5009 8.67146 28.8295 7.99998 28.0009 7.99998H27.501V0H20.001C17.5169 0.00298828 15.5039 2.01598 15.501 4.5V7.99998H15.0009C14.1724 7.99998 13.5009 8.67146 13.5009 9.49998C13.5009 10.3285 14.1724 11 15.0009 11H15.5864C15.9109 12.96 17.1914 14.6295 19.0009 15.45V16H16.5009C14.5689 16.002 13.0029 17.568 13.0009 19.5V20H10.0009V19.5C10.0009 18.6715 9.32945 18 8.50094 18H6.50096C5.67244 18 5.00096 18.6715 5.00096 19.5V20H0.500957C0.224981 20 0.000976574 20.224 0.000976574 20.5V29.5C0.00091798 29.776 0.224922 30 0.500898 30H29.5009C29.7769 30 30.0009 29.776 30.0009 29.5V19.5C29.9989 17.568 28.4329 16.002 26.5009 16ZM23.4469 19.739L23.3544 19.6465L22.2079 18.5L23.7079 17H25.5009L23.4469 19.739ZM21.4244 21.5H21.5774L22.4724 26.871L21.501 28.1665L20.5295 26.871L21.4244 21.5ZM21.7939 20.5H21.2079L20.7079 20L21.501 19.207L22.294 20L21.7939 20.5ZM21.5009 17.793L20.7079 17H22.294L21.5009 17.793ZM28.0009 9C28.2769 9 28.5009 9.224 28.5009 9.49998C28.5009 9.77596 28.2769 9.99996 28.0009 9.99996H27.501V9H28.0009ZM16.5009 4.5C16.5029 2.56799 18.0689 1.00201 20.0009 1.00002H26.5009V4.00002H22.0009V4.5C22.0009 5.32852 21.3294 6 20.5009 6H16.5009V4.5ZM15.0009 10C14.7249 10 14.5009 9.77602 14.5009 9.50004C14.5009 9.22406 14.7249 9 15.0009 9H15.5009V10H15.0009ZM16.5009 10V7.00002H20.5009C21.6885 6.9985 22.7119 6.16354 22.9509 5.00004H26.5009V10C26.5079 12.061 25.2419 13.9125 23.3189 14.654C23.1275 14.729 23.001 14.9135 23.001 15.1195V16H20.001V15.1195C20.001 14.9135 19.8745 14.729 19.683 14.654C17.7599 13.9125 16.4939 12.061 16.5009 10ZM19.2939 17L20.7939 18.5L19.6474 19.6465L19.5549 19.739L17.5009 17H19.2939ZM14.0009 19.5C14.0049 18.2135 14.9869 17.141 16.2684 17.0235L19.1009 20.8C19.1874 20.9164 19.3204 20.9895 19.4654 20.9999H19.5009C19.6334 20.9999 19.7609 20.9474 19.8544 20.8535L20.0009 20.707L20.4654 21.1714L19.5079 26.9174C19.4854 27.0524 19.5189 27.1904 19.6009 27.2999L20.8759 28.9999H15.0009V20.5C15.0009 20.224 14.7769 20 14.5009 20H14.001V19.5H14.0009ZM6.00092 19.5C6.00092 19.224 6.22492 19 6.5009 19H8.50088C8.77685 19 9.00086 19.224 9.00086 19.5V20H6.00086V19.5H6.00092ZM14.0009 21V24.5H1.00094V21H14.0009ZM7.00094 25.5H8.00096V26.5H7.00094V25.5ZM1.00094 29V25.5H6.00092V27C6.00092 27.276 6.22492 27.5 6.5009 27.5H8.50088C8.77685 27.5 9.00086 27.276 9.00086 27V25.5H14.0008V29H1.00094ZM29.0009 29H22.1259L23.4009 27.3C23.4829 27.1905 23.5164 27.0525 23.4939 26.9175L22.5364 21.1715L23.0009 20.707L23.1474 20.8535C23.2409 20.9475 23.3684 21 23.5009 21H23.5364C23.6814 20.9895 23.8144 20.9165 23.9009 20.8L26.7334 17.0235C28.0149 17.141 28.9969 18.2135 29.0009 19.5001V29Z" fill="black"/>
</g>
<defs>
<clipPath id="clip0">
<rect width="30" height="30" fill="white"/>
</clipPath>
</defs>
</svg>
