<svg width="60" height="60" viewBox="0 0 60 60" fill="none" xmlns="http://www.w3.org/2000/svg">
<g clip-path="url(#clip0)">
<path d="M18.3848 39.2838C18.3848 31.4805 24.2669 25.0267 31.8297 24.1197C25.9761 23.4138 20.2388 26.14 17.0891 31.1242C13.9394 36.1079 13.9394 42.4602 17.0891 47.444C20.2388 52.4282 25.9761 55.1544 31.8297 54.4484C24.2669 53.5414 18.3848 47.0872 18.3848 39.2838Z" fill="#D4E1F4"/>
<path d="M5.19046 44.2771H6.3285C7.55609 44.2776 8.6846 43.6045 9.26767 42.5241C9.59398 41.9182 10.2271 41.5395 10.9154 41.539L14.2333 41.5576L14.2419 40.0942L10.9197 40.0756C9.69211 40.0751 8.5636 40.7482 7.98053 41.8286C7.65327 42.436 7.01875 42.8142 6.32897 42.8137H5.1676C4.79032 41.7133 3.66943 41.0507 2.52378 41.2508C1.37812 41.4509 0.547817 42.4546 0.565918 43.6174C0.58402 44.7802 1.44529 45.7572 2.59666 45.9216C3.74756 46.0859 4.84748 45.3885 5.19046 44.2771ZM2.02312 43.5769C2.02312 43.0772 2.4285 42.6723 2.92773 42.6723C3.42744 42.6723 3.83282 43.0772 3.83282 43.5769C3.83235 44.0766 3.42744 44.4815 2.92773 44.4815C2.4285 44.481 2.02359 44.0766 2.02312 43.5769Z" fill="#0635C9"/>
<path d="M10.0465 49.3904C9.76117 50.3455 8.88466 51.001 7.8881 51.0053H6.65051C6.29038 49.8973 5.17807 49.2156 4.02765 49.3976C2.87675 49.58 2.02978 50.5718 2.02978 51.737C2.02978 52.9017 2.87675 53.894 4.02765 54.0759C5.17807 54.2584 6.29038 53.5767 6.65051 52.4687H7.8881C9.53299 52.4615 10.9797 51.3797 11.4504 49.8034C11.7357 48.8488 12.6122 48.1928 13.6088 48.1885H16.3417V46.7252H13.6088C11.9639 46.7323 10.5172 47.8146 10.0465 49.3904ZM4.39921 52.6416C3.89951 52.6416 3.49412 52.2367 3.49412 51.737C3.49412 51.2373 3.89903 50.8319 4.39921 50.8319C4.89892 50.8319 5.30383 51.2373 5.30383 51.737C5.30335 52.2362 4.89844 52.6411 4.39921 52.6416Z" fill="#0635C9"/>
<path d="M10.33 29.2616C10.0684 28.0831 9.02616 27.2428 7.81905 27.2376H4.62027C4.26061 26.1296 3.1483 25.4479 1.99788 25.6298C0.846983 25.8123 7.62939e-06 26.8041 7.62939e-06 27.9693C7.62939e-06 29.134 0.846983 30.1258 1.99788 30.3082C3.1483 30.4902 4.26061 29.8085 4.62027 28.701H7.81905C8.33877 28.7033 8.78798 29.0649 8.9004 29.5722C9.16192 30.7508 10.2047 31.5911 11.4118 31.5968H16.5699V30.1334H11.4118C10.8921 30.131 10.4429 29.769 10.33 29.2616ZM2.36897 28.8744C1.86926 28.8744 1.46388 28.469 1.46388 27.9693C1.46435 27.4696 1.86926 27.0642 2.36897 27.0647C2.86867 27.0647 3.27406 27.4696 3.27406 27.9693C3.27311 28.469 2.86867 28.8734 2.36944 28.8744H2.36897Z" fill="#0635C9"/>
<path d="M8.52263 35.0985H9.11189C9.80786 35.0976 10.4357 35.5163 10.7025 36.1589C11.195 37.3479 12.3564 38.122 13.6435 38.1201H14.2376V36.6567H13.6435C12.9476 36.6577 12.3197 36.2389 12.053 35.5963C11.5604 34.4073 10.399 33.6332 9.11189 33.6351H8.52263C8.16297 32.5271 7.05066 31.8459 5.89977 32.0279C4.74935 32.2099 3.90189 33.2021 3.90189 34.3668C3.90189 35.532 4.74935 36.5238 5.89977 36.7063C7.05066 36.8882 8.16297 36.2065 8.52263 35.0985ZM5.36671 34.3668C5.36671 33.8671 5.7721 33.4622 6.27181 33.4622C6.77151 33.4622 7.17642 33.8671 7.17642 34.3673C7.17642 34.867 6.77151 35.2719 6.27181 35.2719C5.7721 35.2715 5.36719 34.8665 5.36671 34.3668Z" fill="#0635C9"/>
<path d="M57.0732 41.2089C56.0605 41.2103 55.1606 41.8553 54.8338 42.8137H53.6725C52.9827 42.8142 52.3486 42.436 52.0209 41.8286C51.4374 40.7473 50.3065 40.0737 49.0774 40.0756L45.6381 40.0942L45.6462 41.5576L49.0817 41.539C49.7715 41.5385 50.406 41.9172 50.7333 42.5241C51.3159 43.6045 52.4449 44.2776 53.6725 44.2771H54.8105C55.1701 45.439 56.3515 46.1397 57.5434 45.8982C58.7357 45.6562 59.5508 44.551 59.4293 43.3406C59.3078 42.1306 58.2898 41.2089 57.0732 41.2089ZM57.0732 44.4815C56.5735 44.482 56.1686 44.0766 56.1681 43.5769C56.1681 43.0772 56.5735 42.6718 57.0732 42.6718C57.5729 42.6718 57.9783 43.0772 57.9783 43.5769C57.9773 44.0761 57.5729 44.481 57.0732 44.4815Z" fill="#0635C9"/>
<path d="M55.6022 49.3685C54.5766 49.3699 53.6686 50.0302 53.3509 51.0053H52.1128C51.1163 51.001 50.2398 50.3455 49.9544 49.3904C49.4838 47.8141 48.0371 46.7318 46.3922 46.7252H43.4311V48.1886H46.3927C47.3892 48.1924 48.2657 48.8483 48.5511 49.8034C49.0217 51.3792 50.4684 52.4615 52.1133 52.4687H53.3509C53.7258 53.621 54.91 54.3046 56.0957 54.0526C57.2809 53.8001 58.0845 52.6935 57.9573 51.4883C57.8306 50.2831 56.8141 49.3685 55.6022 49.3685ZM55.6022 52.6416C55.1025 52.6416 54.6971 52.2367 54.6971 51.737C54.6971 51.2373 55.1025 50.8319 55.6022 50.8319C56.1019 50.8319 56.5068 51.2373 56.5068 51.737C56.5063 52.2362 56.1014 52.6411 55.6022 52.6416Z" fill="#0635C9"/>
<path d="M57.632 25.6013C56.6069 25.6027 55.6984 26.2629 55.3807 27.2376H52.1819C50.9748 27.2433 49.9325 28.0836 49.671 29.2621C49.5581 29.7695 49.1094 30.131 48.5896 30.1334H43.4311V31.5968H48.5896C49.7968 31.5911 50.839 30.7508 51.1006 29.5722C51.2135 29.0649 51.6622 28.7034 52.1819 28.701H55.3807C55.7556 29.8533 56.9398 30.5364 58.125 30.2844C59.3102 30.0319 60.1139 28.9258 59.9871 27.7206C59.86 26.5154 58.8439 25.6008 57.632 25.6008V25.6013ZM57.632 28.8744C57.1323 28.8744 56.7269 28.469 56.7269 27.9693C56.7269 27.4696 57.1323 27.0642 57.632 27.0647C58.1317 27.0647 58.5366 27.4696 58.5366 27.9693C58.5361 28.469 58.1312 28.8734 57.632 28.8744Z" fill="#0635C9"/>
<path d="M49.299 36.1589C49.5652 35.5163 50.1936 35.0976 50.8891 35.0985H51.4783C51.8384 36.2066 52.9508 36.8882 54.1012 36.7058C55.2516 36.5238 56.099 35.532 56.099 34.3669C56.099 33.2021 55.2516 32.2104 54.1012 32.0279C52.9508 31.8459 51.8384 32.5276 51.4783 33.6352H50.8891C49.6024 33.6333 48.441 34.4073 47.948 35.5963C47.6812 36.239 47.0534 36.6577 46.3574 36.6567H45.7639V38.1201H46.3574C47.6445 38.122 48.8059 37.3479 49.299 36.1589ZM53.7296 33.4622C54.2293 33.4622 54.6347 33.8676 54.6347 34.3673C54.6342 34.867 54.2293 35.2719 53.7296 35.2719C53.2299 35.2719 52.8245 34.867 52.8245 34.3673C52.8255 33.8676 53.2299 33.4627 53.7296 33.4622Z" fill="#0635C9"/>
<path d="M31.8754 45.0722V42.577C32.882 41.7791 33.2731 40.4319 32.851 39.2191C32.4285 38.0063 31.2848 37.1936 30.0005 37.1936C28.7162 37.1936 27.5729 38.0063 27.1504 39.2191C26.7279 40.4319 27.1194 41.7791 28.1255 42.577V45.0722C28.1255 46.1073 28.9649 46.9471 30.0005 46.9471C31.0361 46.9471 31.8754 46.1073 31.8754 45.0722ZM29.5889 45.0722V42.1921C29.5894 41.9305 29.4498 41.689 29.2231 41.558C28.6138 41.206 28.3165 40.4891 28.4985 39.8093C28.681 39.1295 29.2969 38.6565 30.0005 38.6565C30.7045 38.6565 31.3205 39.1295 31.5025 39.8093C31.6844 40.4891 31.3876 41.206 30.7779 41.558C30.5516 41.689 30.4121 41.9305 30.4121 42.1921V45.0722C30.4121 45.2994 30.2277 45.4837 30.0005 45.4837C29.7733 45.4837 29.5889 45.2994 29.5889 45.0722Z" fill="#00ABB4"/>
<path d="M42.7366 16.7613C42.7366 9.72735 37.0345 4.02527 30.0005 4.02527C22.9665 4.02527 17.2644 9.72735 17.2644 16.7613V28.437C14.6787 31.4591 13.2596 35.3067 13.2629 39.2839C13.2629 48.5129 20.7714 56.0214 30.0005 56.0214C39.2296 56.0214 46.738 48.5129 46.738 39.2839C46.7414 35.3067 45.3223 31.4591 42.7366 28.437V16.7613ZM30.0005 5.48866C36.2232 5.49581 41.2665 10.5386 41.2732 16.7613V26.9227C40.6567 26.3601 39.9998 25.8442 39.3067 25.3788V16.7613C39.3067 11.6219 35.1404 7.45509 30.0005 7.45509C24.861 7.45509 20.6942 11.6219 20.6942 16.7613V25.3788C20.0016 25.8442 19.3442 26.3601 18.7278 26.9227V16.7613C18.7349 10.5386 23.7777 5.49581 30.0005 5.48866ZM37.8433 24.5013C32.9396 21.8946 27.0613 21.8946 22.1576 24.5013V16.7613C22.1576 12.4298 25.6694 8.91848 30.0005 8.91848C34.3321 8.91848 37.8433 12.4298 37.8433 16.7613V24.5013ZM30.0005 54.558C21.565 54.558 14.7263 47.7198 14.7263 39.2839C14.7263 30.8484 21.565 24.0097 30.0005 24.0097C38.4364 24.0097 45.2746 30.8484 45.2746 39.2839C45.2651 47.7155 38.4321 54.5485 30.0005 54.558Z" fill="#212121" stroke="#212121" stroke-width="0.5"/>
<path d="M32.3614 50.7566C31.5844 50.9148 30.7936 50.9948 30.0005 50.9943C29.5965 50.9943 29.2688 51.3221 29.2688 51.7261C29.2688 52.13 29.5965 52.4578 30.0005 52.4578C30.8922 52.4582 31.7811 52.3682 32.6548 52.19C32.9125 52.1395 33.1231 51.9542 33.2069 51.7051C33.2908 51.4564 33.2345 51.1816 33.0597 50.9853C32.8849 50.7895 32.6186 50.7018 32.3614 50.7566Z" fill="#57565C"/>
<path d="M34.667 50.0278C34.4212 50.1278 34.2482 50.3536 34.2163 50.6171C34.1844 50.881 34.2973 51.1415 34.5122 51.2978C34.727 51.4536 35.01 51.4812 35.251 51.3692C40.0628 49.278 43.1753 44.5306 43.1744 39.2834C43.1744 38.8794 42.8466 38.5517 42.4427 38.5517C42.0387 38.5517 41.711 38.8794 41.711 39.2834C41.7119 43.948 38.9447 48.1685 34.667 50.0278Z" fill="#57565C"/>
<path d="M27.7411 27.7783C27.7854 27.7783 27.8302 27.774 27.874 27.7659C28.5757 27.6377 29.2874 27.5734 30.0005 27.5734C30.405 27.5734 30.7322 27.2457 30.7322 26.8417C30.7322 26.4378 30.405 26.11 30.0005 26.11C29.1988 26.11 28.3989 26.1824 27.6106 26.3268C27.239 26.3954 26.9808 26.736 27.0146 27.1123C27.0489 27.4886 27.3638 27.7768 27.7416 27.7778L27.7411 27.7783Z" fill="#57565C"/>
<path d="M24.8724 27.1456C19.9916 29.203 16.8204 33.9872 16.8266 39.2839C16.8266 39.6878 17.1543 40.0156 17.5583 40.0156C17.9627 40.0156 18.29 39.6878 18.29 39.2839C18.2848 34.575 21.1034 30.322 25.4426 28.4933C25.8146 28.3361 25.989 27.9064 25.8313 27.5343C25.6741 27.1623 25.2449 26.9879 24.8724 27.1456Z" fill="#57565C"/>
</g>
<defs>
<clipPath id="clip0">
<rect width="60" height="60" fill="white"/>
</clipPath>
</defs>
</svg>
