<svg width="60" height="60" viewBox="0 0 60 60" fill="none" xmlns="http://www.w3.org/2000/svg">
<path d="M35.9843 53.1931C35.9843 56.467 33.3307 59.1211 30.0568 59.1211C26.7828 59.1211 24.1287 56.467 24.1287 53.1931C24.1287 49.9196 26.7828 47.2655 30.0568 47.2655C33.3307 47.2655 35.9843 49.9196 35.9843 53.1931Z" fill="#787680"/>
<path d="M35.9843 6.80695C35.9843 10.0804 33.3307 12.7345 30.0568 12.7345C26.7828 12.7345 24.1287 10.0804 24.1287 6.80695C24.1287 3.53302 26.7828 0.878906 30.0568 0.878906C33.3307 0.878906 35.9843 3.53302 35.9843 6.80695Z" fill="#787680"/>
<path d="M35.9843 30.0055C35.9843 33.279 33.3307 35.9331 30.0568 35.9331C26.7828 35.9331 24.1287 33.279 24.1287 30.0055C24.1287 26.7316 26.7828 24.0775 30.0568 24.0775C33.3307 24.0775 35.9843 26.7316 35.9843 30.0055Z" fill="#57A4FF"/>
<path d="M56.0706 18.3714C56.0706 21.6454 53.4165 24.2995 50.143 24.2995C46.8691 24.2995 44.215 21.6454 44.215 18.3714C44.215 15.098 46.8691 12.4438 50.143 12.4438C53.4165 12.4438 56.0706 15.098 56.0706 18.3714Z" fill="#C6C5CA"/>
<path d="M56.0706 41.6084C56.0706 44.8824 53.4165 47.5365 50.143 47.5365C46.8691 47.5365 44.215 44.8824 44.215 41.6084C44.215 38.3345 46.8691 35.6808 50.143 35.6808C53.4165 35.6808 56.0706 38.3345 56.0706 41.6084Z" fill="#57A4FF"/>
<path d="M15.8986 18.3714C15.8986 21.6454 13.2445 24.2995 9.97055 24.2995C6.69662 24.2995 4.04297 21.6454 4.04297 18.3714C4.04297 15.098 6.69662 12.4438 9.97055 12.4438C13.2445 12.4438 15.8986 15.098 15.8986 18.3714Z" fill="#57A4FF"/>
<path d="M15.8986 41.6084C15.8986 44.8824 13.2445 47.5365 9.97055 47.5365C6.69662 47.5365 4.04297 44.8824 4.04297 41.6084C4.04297 38.3345 6.69662 35.6808 9.97055 35.6808C13.2445 35.6808 15.8986 38.3345 15.8986 41.6084Z" fill="#C6C5CA"/>
<path d="M27.6443 53.1931C27.6443 50.5316 29.399 48.2794 31.8146 47.5305C31.2589 47.3584 30.6688 47.2655 30.0568 47.2655C26.7828 47.2655 24.1287 49.9196 24.1287 53.1931C24.1287 56.467 26.7828 59.1211 30.0568 59.1211C30.6688 59.1211 31.2589 59.0282 31.8146 58.856C29.399 58.1071 27.6443 55.8549 27.6443 53.1931Z" fill="#57565C"/>
<path d="M27.6443 6.80695C27.6443 4.14505 29.399 1.89285 31.8146 1.14395C31.2589 0.971832 30.6688 0.878906 30.0568 0.878906C26.7828 0.878906 24.1287 3.53302 24.1287 6.80695C24.1287 10.0804 26.7828 12.7345 30.0568 12.7345C30.6688 12.7345 31.2589 12.6416 31.8146 12.4695C29.399 11.7206 27.6443 9.46838 27.6443 6.80695Z" fill="#57565C"/>
<path d="M27.6443 30.0055C27.6443 27.3436 29.399 25.0914 31.8146 24.3425C31.2589 24.1704 30.6688 24.0775 30.0568 24.0775C26.7828 24.0775 24.1287 26.7316 24.1287 30.0055C24.1287 33.279 26.7828 35.9331 30.0568 35.9331C30.6688 35.9331 31.2589 35.8401 31.8146 35.668C29.399 34.9191 27.6443 32.6669 27.6443 30.0055Z" fill="#006DF0"/>
<path d="M47.7306 18.3714C47.7306 15.71 49.4852 13.4578 51.9008 12.7089C51.3451 12.5368 50.755 12.4438 50.143 12.4438C46.8691 12.4438 44.215 15.098 44.215 18.3714C44.215 21.6454 46.8691 24.2995 50.143 24.2995C50.755 24.2995 51.3451 24.2065 51.9008 24.0344C49.4852 23.2851 47.7306 21.0333 47.7306 18.3714Z" fill="#898890"/>
<path d="M47.7306 41.6084C47.7306 38.9465 49.4852 36.6948 51.9008 35.9459C51.3451 35.7733 50.755 35.6808 50.143 35.6808C46.8691 35.6808 44.215 38.3345 44.215 41.6084C44.215 44.8824 46.8691 47.5365 50.143 47.5365C50.755 47.5365 51.3451 47.4435 51.9008 47.2714C49.4852 46.5221 47.7306 44.2703 47.7306 41.6084Z" fill="#006DF0"/>
<path d="M7.55859 18.3714C7.55859 15.71 9.3132 13.4578 11.7288 12.7089C11.1731 12.5368 10.583 12.4438 9.97101 12.4438C6.69708 12.4438 4.04297 15.098 4.04297 18.3714C4.04297 21.6454 6.69708 24.2995 9.97101 24.2995C10.583 24.2995 11.1731 24.2065 11.7288 24.0344C9.3132 23.2851 7.55859 21.0333 7.55859 18.3714Z" fill="#006DF0"/>
<path d="M7.55859 41.6084C7.55859 38.9465 9.3132 36.6948 11.7288 35.9459C11.1731 35.7733 10.583 35.6808 9.97101 35.6808C6.69708 35.6808 4.04297 38.3345 4.04297 41.6084C4.04297 44.8824 6.69708 47.5365 9.97101 47.5365C10.583 47.5365 11.1731 47.4435 11.7288 47.2714C9.3132 46.5221 7.55859 44.2703 7.55859 41.6084Z" fill="#898890"/>
<path d="M16.7079 46.5134L17.5869 44.9908L23.3364 48.311L22.457 49.8331L16.7079 46.5134Z" fill="black"/>
<path d="M16.6978 13.5168L22.4565 10.1912L23.3358 11.7137L17.5767 15.0394L16.6978 13.5168Z" fill="black"/>
<path d="M36.7776 11.7101L37.657 10.1875L43.4157 13.5136L42.5368 15.0357L36.7776 11.7101Z" fill="black"/>
<path d="M49.2636 26.673H51.0214V33.3678H49.2636V26.673Z" fill="black"/>
<path d="M30.0568 46.3866C26.3036 46.3866 23.2498 49.4403 23.2498 53.1931C23.2498 56.9467 26.3036 60 30.0568 60C33.81 60 36.8633 56.9467 36.8633 53.1931C36.8633 49.4403 33.81 46.3866 30.0568 46.3866ZM30.0568 58.2422C27.2726 58.2422 25.0076 55.9772 25.0076 53.1931C25.0076 50.4094 27.2726 48.1444 30.0568 48.1444C32.8409 48.1444 35.1054 50.4094 35.1054 53.1931C35.1054 55.9772 32.8409 58.2422 30.0568 58.2422Z" fill="black"/>
<path d="M30.0568 13.6134C33.81 13.6134 36.8633 10.5597 36.8633 6.80695C36.8633 3.05328 33.81 0 30.0568 0C26.3036 0 23.2498 3.05328 23.2498 6.80695C23.2498 10.5597 26.3036 13.6134 30.0568 13.6134ZM30.0568 1.75781C32.8409 1.75781 35.1054 4.02283 35.1054 6.80695C35.1054 9.59061 32.8409 11.8556 30.0568 11.8556C27.2726 11.8556 25.0076 9.59061 25.0076 6.80695C25.0076 4.02283 27.2726 1.75781 30.0568 1.75781Z" fill="black"/>
<path d="M30.0568 36.812C33.81 36.812 36.8633 33.7587 36.8633 30.0055C36.8633 26.2523 33.81 23.1985 30.0568 23.1985C26.3036 23.1985 23.2498 26.2523 23.2498 30.0055C23.2498 33.7587 26.3036 36.812 30.0568 36.812ZM30.0568 24.9564C32.8409 24.9564 35.1054 27.2214 35.1054 30.005C35.1054 32.7892 32.8409 35.0542 30.0568 35.0542C27.2726 35.0542 25.0076 32.7892 25.0076 30.005C25.0076 27.2214 27.2726 24.9564 30.0568 24.9564Z" fill="black"/>
<path d="M50.1425 25.1784C53.8958 25.1784 56.9495 22.1251 56.9495 18.3714C56.9495 14.6182 53.8958 11.5649 50.1425 11.5649C46.3893 11.5649 43.3361 14.6182 43.3361 18.3714C43.3361 22.1251 46.3893 25.1784 50.1425 25.1784ZM50.1425 13.3228C52.9267 13.3228 55.1917 15.5878 55.1917 18.3714C55.1917 21.1555 52.9267 23.4206 50.1425 23.4206C47.3589 23.4206 45.0939 21.1555 45.0939 18.3714C45.0939 15.5878 47.3589 13.3228 50.1425 13.3228Z" fill="black"/>
<path d="M50.1425 34.8019C46.3893 34.8019 43.3361 37.8552 43.3361 41.6084C43.3361 45.3616 46.3893 48.4149 50.1425 48.4149C53.8958 48.4149 56.9495 45.3616 56.9495 41.6084C56.9495 37.8552 53.8958 34.8019 50.1425 34.8019ZM50.1425 46.6576C47.3589 46.6576 45.0939 44.3925 45.0939 41.6084C45.0939 38.8248 47.3589 36.5598 50.1425 36.5598C52.9267 36.5598 55.1917 38.8248 55.1917 41.6084C55.1917 44.3925 52.9267 46.6576 50.1425 46.6576Z" fill="black"/>
<path d="M9.97101 25.1784C13.7238 25.1784 16.7775 22.1251 16.7775 18.3714C16.7775 14.6182 13.7238 11.5649 9.97101 11.5649C6.21735 11.5649 3.16406 14.6182 3.16406 18.3714C3.16406 22.1251 6.21735 25.1784 9.97101 25.1784ZM9.97101 13.3228C12.7547 13.3228 15.0197 15.5878 15.0197 18.3714C15.0197 21.1555 12.7547 23.4206 9.97101 23.4206C7.18689 23.4206 4.92188 21.1555 4.92188 18.3714C4.92188 15.5878 7.18689 13.3228 9.97101 13.3228Z" fill="black"/>
<path d="M9.97101 34.8019C6.21735 34.8019 3.16406 37.8552 3.16406 41.6084C3.16406 45.3616 6.21735 48.4149 9.97101 48.4149C13.7238 48.4149 16.7775 45.3616 16.7775 41.6084C16.7775 37.8552 13.7238 34.8019 9.97101 34.8019ZM9.97101 46.6576C7.18689 46.6576 4.92188 44.3925 4.92188 41.6084C4.92188 38.8248 7.18689 36.5598 9.97101 36.5598C12.7547 36.5598 15.0197 38.8248 15.0197 41.6084C15.0197 44.3925 12.7547 46.6576 9.97101 46.6576Z" fill="black"/>
<path d="M29.1779 15.0893H30.9357V21.7337H29.1779V15.0893Z" fill="black"/>
<path d="M16.6786 36.7223L22.456 33.3806L23.3358 34.9022L17.5584 38.2439L16.6786 36.7223Z" fill="black"/>
<path d="M36.7781 34.9013L37.6584 33.3797L43.4358 36.7223L42.5555 38.2439L36.7781 34.9013Z" fill="black"/>
<path d="M32.7983 55.9346L31.555 54.6918C31.9546 54.2926 32.1743 53.7602 32.1743 53.193C32.1743 52.9056 32.118 52.6263 32.0068 52.3636L33.6255 51.6778C33.8292 52.159 33.9326 52.6684 33.9326 53.193C33.9322 54.2299 33.5293 55.2031 32.7983 55.9346ZM28.558 51.6948L27.3152 50.452C27.8572 49.91 28.5406 49.5438 29.2914 49.3936L29.6365 51.1171C29.2268 51.199 28.8542 51.3991 28.558 51.6948ZM31.544 51.6838C31.2465 51.3904 30.872 51.1931 30.4619 51.1143L30.7946 49.3881C31.5468 49.5332 32.2325 49.8939 32.7781 50.4323L31.544 51.6838Z" fill="white"/>
<path d="M32.7983 9.54804L31.5554 8.30521C31.9546 7.90604 32.1748 7.37366 32.1748 6.80695C32.1748 6.51901 32.118 6.23978 32.0068 5.97702L33.6255 5.29129C33.8292 5.7724 33.9326 6.28235 33.9326 6.80695C33.9322 7.84332 33.5293 8.81653 32.7983 9.54804ZM28.558 5.30823L27.3152 4.0654C27.8572 3.52341 28.5406 3.1572 29.2914 3.00705L29.6365 4.73053C29.2268 4.81247 28.8542 5.01205 28.558 5.30823ZM31.5445 5.29724C31.2465 5.00381 30.872 4.80652 30.4619 4.72778L30.7946 3.00156C31.5463 3.14621 32.2325 3.50739 32.7781 4.04526L31.5445 5.29724Z" fill="white"/>
<path d="M32.7983 32.7466L31.555 31.5037C31.9546 31.1041 32.1748 30.5722 32.1748 30.005C32.1748 29.7176 32.118 29.4383 32.0068 29.1756L33.6255 28.4898C33.8292 28.9709 33.9326 29.4804 33.9326 30.005C33.9322 31.0414 33.5293 32.0151 32.7983 32.7466ZM28.558 28.5068L27.3152 27.2639C27.8572 26.722 28.5406 26.3557 29.2914 26.2056L29.6365 27.9291C29.2268 28.011 28.8542 28.2106 28.558 28.5068ZM31.5445 28.4958C31.2465 28.2024 30.872 28.0051 30.4619 27.9263L30.7946 26.2001C31.5463 26.3448 32.2325 26.7059 32.7781 27.2438L31.5445 28.4958Z" fill="white"/>
<path d="M52.884 21.113L51.6412 19.8701C52.0403 19.471 52.2605 18.9386 52.2605 18.3714C52.2605 18.084 52.2042 17.8047 52.0925 17.5415L53.7116 16.8562C53.9149 17.3373 54.0183 17.8473 54.0183 18.3714C54.0183 19.4083 53.6155 20.3819 52.884 21.113ZM48.6442 16.8732L47.4014 15.6303C47.9434 15.0883 48.6268 14.7221 49.3771 14.572L49.7222 16.2955C49.313 16.3774 48.9399 16.577 48.6442 16.8732ZM51.6302 16.8622C51.3322 16.5688 50.9582 16.3715 50.548 16.2923L50.8804 14.5665C51.6325 14.7112 52.3182 15.0723 52.8643 15.6102L51.6302 16.8622Z" fill="white"/>
<path d="M52.884 44.35L51.6412 43.1071C52.0403 42.7075 52.2605 42.1756 52.2605 41.6084C52.2605 41.3205 52.2042 41.0417 52.0925 40.779L53.7116 40.0932C53.9149 40.5739 54.0183 41.0838 54.0183 41.6084C54.0183 42.6448 53.6155 43.6185 52.884 44.35ZM48.6442 40.1097L47.4014 38.8669C47.9434 38.3249 48.6268 37.9587 49.3771 37.8085L49.7222 39.5325C49.313 39.6144 48.9399 39.814 48.6442 40.1097ZM51.6302 40.0992C51.3322 39.8053 50.9582 39.6085 50.548 39.5293L50.8808 37.8035C51.6325 37.9482 52.3187 38.3093 52.8643 38.8472L51.6302 40.0992Z" fill="white"/>
<path d="M12.7121 21.113L11.4692 19.8701C11.8689 19.471 12.0886 18.9386 12.0886 18.3714C12.0886 18.084 12.0323 17.8047 11.9211 17.5415L13.5397 16.8562C13.7434 17.3373 13.8464 17.8473 13.8464 18.3714C13.8464 19.4083 13.4436 20.3819 12.7121 21.113ZM8.47226 16.8732L7.22943 15.6303C7.77142 15.0883 8.45486 14.7221 9.20514 14.572L9.55029 16.2955C9.14105 16.3774 8.76797 16.577 8.47226 16.8732ZM11.4583 16.8622C11.1602 16.5688 10.7858 16.3715 10.3756 16.2923L10.7084 14.5665C11.4605 14.7112 12.1463 15.0723 12.6924 15.6102L11.4583 16.8622Z" fill="white"/>
<path d="M12.7121 44.35L11.4692 43.1071C11.8684 42.7075 12.0886 42.1756 12.0886 41.6084C12.0886 41.3205 12.0323 41.0417 11.9211 40.779L13.5397 40.0932C13.7434 40.5739 13.8464 41.0838 13.8464 41.6084C13.8464 42.6448 13.4436 43.6185 12.7121 44.35ZM8.47226 40.1097L7.22943 38.8669C7.77142 38.3249 8.45486 37.9587 9.20514 37.8085L9.55029 39.5325C9.14105 39.6144 8.76797 39.814 8.47226 40.1097ZM11.4583 40.0992C11.1602 39.8053 10.7863 39.6085 10.3761 39.5293L10.7089 37.8035C11.4605 37.9482 12.1467 38.3093 12.6924 38.8472L11.4583 40.0992Z" fill="white"/>
</svg>
