<svg width="1170" height="12" viewBox="0 0 1170 12" fill="none" xmlns="http://www.w3.org/2000/svg">
<g clip-path="url(#clip0)">
<path d="M85.9012 6.07C83.2679 9.06 79.3379 10.83 75.368 10.61C73.3831 10.52 71.448 9.98 69.7024 9C67.9369 8.04 66.341 6.69 64.7151 5.34C62.9397 3.87 61.1043 2.32 58.9 1.27C56.7055 0.179999 54.1521 -0.190001 51.7482 0.159999C49.3343 0.489999 47.0202 1.46 45.135 3.01C43.2199 4.64 42.1925 6.75 40.4569 8.11C37.6641 10.54 33.8039 11.52 30.1931 10.92C28.3777 10.64 26.6621 9.93 25.106 8.94C23.54 7.97 22.1137 6.76 20.6673 5.57C19.231 4.38 17.7548 3.2 16.109 2.28C14.4731 1.36 12.6278 0.749999 10.7326 0.669999C6.96225 0.459999 3.04223 1.93 0.408941 4.87C-0.169586 5.56 -0.0897888 5.91 0.398966 5.42C2.53353 3.26 5.62565 1.76 8.97712 1.56C10.6429 1.44 12.3585 1.69 13.9445 2.3C15.5404 2.94 17.0466 3.93 18.4929 5.07C21.3755 7.31 24.2682 10.15 28.0086 11.34C31.6893 12.51 35.6193 12.05 38.6316 10.45C39.6889 9.9 40.6564 9.21 41.5342 8.41C42.4319 7.62 43.1501 6.67 43.8682 5.78C44.5864 4.89 45.3245 4.04 46.2422 3.41C47.1499 2.75 48.1474 2.22 49.2047 1.83C51.3193 1.06 53.6433 0.859999 55.8378 1.32C58.0421 1.77 60.0171 3.01 61.8225 4.4C63.6379 5.8 65.3236 7.4 67.2387 8.76C69.1239 10.14 71.3183 11.21 73.6624 11.55C75.9864 11.92 78.4003 11.68 80.5847 10.83C82.7692 9.98 84.7042 8.56 86.1506 6.76C86.6593 6.13 86.8488 5.59 86.7989 5.41C86.7191 5.25 86.4498 5.43 85.9012 6.07Z" fill="#C0CCDA"/>
<path d="M172.58 6.07C169.947 9.06 166.007 10.83 162.037 10.61C160.052 10.52 158.107 9.98 156.372 8.99C154.606 8.02 153.01 6.68 151.384 5.33C149.609 3.86 147.774 2.31 145.559 1.26C143.355 0.2 140.831 -0.21 138.407 0.11C135.994 0.43 133.66 1.42 131.794 3C131.326 3.4 130.897 3.83 130.498 4.29C130.109 4.76 129.73 5.27 129.43 5.72C128.782 6.62 128.024 7.43 127.176 8.13C124.343 10.51 120.503 11.53 116.882 10.92C115.067 10.64 113.341 9.94 111.785 8.94C110.209 7.97 108.793 6.76 107.347 5.57C105.91 4.38 104.434 3.2 102.788 2.28C101.152 1.36 99.3071 0.74 97.4119 0.66C93.6415 0.45 89.7115 1.93 87.0682 4.87C86.4897 5.56 86.5695 5.91 87.0583 5.42C89.1928 3.25 92.2949 1.76 95.6364 1.56C97.3022 1.44 99.0178 1.69 100.604 2.31C102.21 2.95 103.706 3.95 105.162 5.08C108.045 7.33 110.937 10.17 114.688 11.35C118.379 12.52 122.299 12.03 125.311 10.46C127.415 9.38 129.261 7.75 130.557 5.77C131.854 3.96 133.729 2.57 135.834 1.79C137.939 1.01 140.273 0.85 142.467 1.33C144.682 1.78 146.647 3.01 148.462 4.41C150.277 5.81 151.973 7.41 153.878 8.78C155.763 10.16 157.958 11.23 160.302 11.58C162.626 11.95 165.05 11.71 167.224 10.86C169.409 10.01 171.344 8.59 172.8 6.79C173.309 6.16 173.498 5.62 173.448 5.44C173.408 5.25 173.139 5.43 172.58 6.07Z" fill="#C0CCDA"/>
<path d="M259.26 6.07C256.626 9.06 252.686 10.83 248.727 10.61C246.742 10.52 244.806 9.98 243.061 8.99C241.295 8.02 239.699 6.68 238.074 5.33C236.298 3.86 234.463 2.31 232.258 1.26C230.064 0.180001 227.521 -0.209999 225.117 0.110001C222.693 0.420001 220.369 1.4 218.503 2.99C216.628 4.66 215.611 6.76 213.855 8.1C211.042 10.51 207.202 11.52 203.581 10.91C201.766 10.63 200.04 9.93 198.494 8.93C196.918 7.96 195.502 6.75 194.056 5.56C192.619 4.37 191.143 3.19 189.497 2.27C187.862 1.35 186.016 0.740001 184.121 0.650001C180.351 0.450001 176.421 1.92 173.787 4.86C173.209 5.55 173.289 5.9 173.777 5.41C175.912 3.24 179.014 1.75 182.356 1.55C184.021 1.43 185.737 1.68 187.323 2.3C188.919 2.94 190.425 3.94 191.881 5.07C194.764 7.31 197.657 10.15 201.397 11.34C205.078 12.5 209.008 12.04 212.02 10.44C213.067 9.89 214.055 9.21 214.933 8.42C215.83 7.63 216.568 6.69 217.277 5.79C217.995 4.89 218.713 4.03 219.611 3.38C220.508 2.71 221.506 2.17 222.553 1.78C224.658 1.01 226.992 0.840001 229.186 1.32C231.391 1.78 233.366 3.01 235.171 4.4C236.986 5.8 238.682 7.4 240.587 8.77C242.472 10.15 244.667 11.22 247.011 11.56C249.335 11.93 251.759 11.69 253.933 10.84C256.118 9.99 258.053 8.57 259.509 6.77C260.018 6.14 260.207 5.6 260.157 5.42C260.088 5.25 259.818 5.43 259.26 6.07Z" fill="#C0CCDA"/>
<path d="M302.918 5.65C300.255 8.59 296.515 10.66 292.485 10.67C290.301 10.69 288.126 10.14 286.201 9.04C284.246 7.97 282.5 6.47 280.685 5.03C279.169 3.83 277.603 2.67 275.867 1.83C274.142 0.970004 272.217 0.550004 270.321 0.560004C266.541 0.620004 262.811 2.23 260.187 5.19C259.888 5.53 260.038 5.79 260.317 5.57C262.691 3.6 265.813 1.92 269.364 1.59C271.119 1.44 272.915 1.63 274.551 2.27C276.197 2.89 277.673 3.88 278.969 4.87C280.775 6.27 282.491 7.86 284.446 9.18C286.381 10.52 288.655 11.48 291.029 11.71C293.393 11.97 295.827 11.61 297.981 10.62C300.136 9.64 302.001 8.08 303.317 6.17C303.766 5.5 303.477 5.01 302.918 5.65Z" fill="#C0CCDA"/>
<path d="M389.288 6.07C386.655 9.06 382.715 10.83 378.755 10.61C376.77 10.52 374.835 9.98 373.09 8.99C371.324 8.03 369.728 6.68 368.102 5.33C366.327 3.86 364.492 2.31 362.287 1.26C360.093 0.189999 357.559 -0.210001 355.145 0.109999C352.732 0.419999 350.398 1.4 348.532 2.98C346.637 4.62 345.6 6.72 343.864 8.08C342.448 9.26 340.802 10.17 339.046 10.64C337.281 11.11 335.416 11.2 333.61 10.91C331.795 10.63 330.079 9.93 328.523 8.93C326.957 7.96 325.531 6.75 324.085 5.56C322.648 4.37 321.172 3.19 319.526 2.27C317.89 1.35 316.045 0.739999 314.15 0.649999C310.379 0.449999 306.449 1.92 303.816 4.86C303.238 5.55 303.317 5.9 303.806 5.41C305.941 3.24 309.043 1.75 312.384 1.55C314.05 1.43 315.766 1.68 317.352 2.29C318.948 2.93 320.454 3.92 321.91 5.06C324.793 7.3 327.685 10.14 331.426 11.33C335.106 12.49 339.036 12.04 342.049 10.42C343.096 9.87 344.074 9.18 344.951 8.39C345.849 7.59 346.567 6.65 347.295 5.76C348.662 3.92 350.467 2.54 352.602 1.77C354.707 0.999999 357.041 0.829999 359.235 1.31C361.439 1.77 363.414 3 365.22 4.4C367.035 5.8 368.731 7.4 370.636 8.77C372.521 10.15 374.716 11.22 377.06 11.56C379.384 11.93 381.798 11.69 383.982 10.84C386.166 9.99 388.102 8.57 389.558 6.77C390.066 6.14 390.256 5.6 390.206 5.42C390.106 5.25 389.837 5.43 389.288 6.07Z" fill="#C0CCDA"/>
<path d="M432.937 5.65C430.274 8.59 426.534 10.66 422.504 10.67C420.319 10.69 418.145 10.14 416.22 9.04C414.265 7.97 412.519 6.47 410.704 5.03C409.188 3.83 407.622 2.67 405.886 1.83C404.161 0.970004 402.235 0.550004 400.34 0.560004C396.56 0.620004 392.829 2.23 390.206 5.19C389.907 5.53 390.056 5.79 390.336 5.57C392.71 3.6 395.832 1.92 399.383 1.59C401.138 1.44 402.934 1.63 404.57 2.27C406.215 2.89 407.692 3.88 408.988 4.87C410.794 6.27 412.509 7.86 414.464 9.18C416.399 10.52 418.674 11.48 421.048 11.71C423.412 11.97 425.845 11.61 428 10.62C430.154 9.64 432.02 8.08 433.336 6.17C433.785 5.5 433.496 5.01 432.937 5.65Z" fill="#C0CCDA"/>
<path d="M519.257 6.07C516.624 9.06 512.694 10.83 508.724 10.61C506.739 10.52 504.804 9.98 503.059 9C501.293 8.04 499.697 6.69 498.071 5.34C496.296 3.87 494.461 2.32 492.256 1.27C490.062 0.179999 487.508 -0.190001 485.104 0.159999C482.691 0.489999 480.376 1.46 478.491 3.01C476.576 4.64 475.549 6.75 473.813 8.11C471.02 10.54 467.16 11.52 463.549 10.92C461.734 10.64 460.018 9.93 458.462 8.94C456.896 7.97 455.47 6.76 454.024 5.57C452.587 4.38 451.111 3.2 449.475 2.28C447.839 1.36 445.994 0.749999 444.099 0.669999C440.328 0.469999 436.408 1.94 433.765 4.88C433.187 5.57 433.266 5.92 433.755 5.43C435.89 3.27 438.982 1.77 442.333 1.57C443.999 1.45 445.715 1.7 447.301 2.31C448.897 2.95 450.403 3.94 451.849 5.08C454.732 7.32 457.624 10.16 461.365 11.35C465.045 12.52 468.975 12.06 471.988 10.46C473.045 9.91 474.013 9.22 474.89 8.42C475.788 7.63 476.506 6.68 477.224 5.79C477.943 4.9 478.681 4.05 479.598 3.42C480.506 2.76 481.504 2.23 482.561 1.84C484.666 1.07 487 0.869999 489.194 1.33C491.398 1.78 493.373 3.02 495.179 4.41C496.994 5.81 498.68 7.41 500.595 8.77C502.48 10.15 504.675 11.22 507.019 11.56C509.343 11.93 511.756 11.69 513.941 10.84C516.125 9.99 518.06 8.57 519.507 6.77C520.015 6.14 520.205 5.6 520.155 5.42C520.085 5.25 519.816 5.43 519.257 6.07Z" fill="#C0CCDA"/>
<path d="M605.947 6.07C603.313 9.06 599.373 10.83 595.403 10.61C593.418 10.52 591.473 9.98 589.738 8.99C587.972 8.02 586.376 6.68 584.751 5.33C582.975 3.86 581.14 2.31 578.925 1.26C576.721 0.2 574.197 -0.21 571.774 0.11C569.36 0.43 567.026 1.42 565.16 3C564.692 3.4 564.263 3.83 563.864 4.29C563.475 4.76 563.096 5.27 562.796 5.72C562.148 6.62 561.39 7.43 560.542 8.13C557.709 10.51 553.869 11.53 550.248 10.92C548.433 10.64 546.707 9.94 545.151 8.94C543.575 7.97 542.159 6.76 540.713 5.57C539.276 4.38 537.8 3.2 536.154 2.28C534.519 1.36 532.673 0.74 530.778 0.66C527.008 0.45 523.078 1.93 520.434 4.87C519.856 5.56 519.936 5.91 520.424 5.42C522.559 3.25 525.661 1.76 529.003 1.56C530.668 1.44 532.384 1.69 533.97 2.31C535.576 2.95 537.072 3.95 538.528 5.08C541.411 7.33 544.304 10.17 548.054 11.35C551.745 12.52 555.665 12.03 558.677 10.46C560.782 9.38 562.627 7.75 563.924 5.77C565.22 3.96 567.096 2.57 569.2 1.79C571.305 1.01 573.639 0.85 575.833 1.33C578.048 1.78 580.023 3.01 581.828 4.41C583.643 5.81 585.339 7.41 587.244 8.78C589.129 10.16 591.324 11.23 593.668 11.58C595.992 11.95 598.416 11.71 600.59 10.86C602.775 10.01 604.71 8.59 606.166 6.79C606.675 6.16 606.864 5.62 606.814 5.44C606.765 5.25 606.495 5.43 605.947 6.07Z" fill="#C0CCDA"/>
<path d="M692.626 6.07C689.993 9.06 686.053 10.83 682.093 10.61C680.108 10.52 678.173 9.98 676.427 8.99C674.662 8.02 673.066 6.68 671.44 5.33C669.664 3.86 667.829 2.31 665.625 1.26C663.43 0.180001 660.887 -0.209999 658.483 0.110001C656.059 0.420001 653.735 1.4 651.87 2.99C649.994 4.66 648.977 6.76 647.221 8.1C644.409 10.51 640.568 11.52 636.948 10.91C635.132 10.63 633.407 9.93 631.861 8.93C630.285 7.96 628.868 6.75 627.422 5.56C625.986 4.37 624.509 3.19 622.864 2.27C621.228 1.35 619.382 0.740001 617.487 0.650001C613.717 0.450001 609.787 1.92 607.154 4.86C606.575 5.55 606.655 5.9 607.144 5.41C609.278 3.24 612.38 1.75 615.722 1.55C617.387 1.43 619.103 1.68 620.689 2.3C622.295 2.94 623.791 3.94 625.248 5.07C628.13 7.31 631.023 10.15 634.763 11.34C638.444 12.5 642.374 12.04 645.386 10.44C646.434 9.89 647.421 9.21 648.299 8.42C649.196 7.63 649.935 6.69 650.643 5.79C651.361 4.89 652.079 4.03 652.977 3.38C653.875 2.71 654.872 2.17 655.919 1.78C658.024 1.01 660.358 0.840001 662.552 1.32C664.757 1.78 666.732 3.01 668.537 4.4C670.353 5.8 672.048 7.4 673.953 8.77C675.839 10.15 678.033 11.22 680.377 11.56C682.701 11.93 685.125 11.69 687.299 10.84C689.484 9.99 691.419 8.57 692.875 6.77C693.384 6.14 693.573 5.6 693.524 5.42C693.444 5.25 693.184 5.43 692.626 6.07Z" fill="#C0CCDA"/>
<path d="M736.285 5.65C733.621 8.59 729.881 10.66 725.851 10.67C723.667 10.69 721.492 10.14 719.567 9.04C717.612 7.97 715.867 6.47 714.051 5.03C712.535 3.83 710.969 2.67 709.233 1.83C707.508 0.970004 705.583 0.550004 703.688 0.560004C699.907 0.620004 696.177 2.23 693.553 5.19C693.254 5.53 693.404 5.79 693.683 5.57C696.057 3.6 699.179 1.92 702.73 1.59C704.486 1.44 706.281 1.63 707.917 2.27C709.563 2.89 711.039 3.88 712.336 4.87C714.141 6.27 715.857 7.86 717.812 9.18C719.747 10.52 722.021 11.48 724.395 11.71C726.759 11.97 729.193 11.61 731.347 10.62C733.502 9.64 735.367 8.08 736.684 6.17C737.122 5.5 736.843 5.01 736.285 5.65Z" fill="#C0CCDA"/>
<path d="M822.645 6.07C820.011 9.06 816.071 10.83 812.111 10.61C810.127 10.52 808.191 9.98 806.446 8.99C804.68 8.03 803.084 6.68 801.459 5.33C799.683 3.86 797.848 2.31 795.643 1.26C793.449 0.189999 790.915 -0.210001 788.502 0.109999C786.088 0.419999 783.754 1.4 781.888 2.98C779.993 4.62 778.956 6.72 777.22 8.08C775.804 9.26 774.158 10.17 772.403 10.64C770.637 11.11 768.772 11.2 766.966 10.91C765.151 10.63 763.435 9.93 761.879 8.93C760.303 7.96 758.887 6.75 757.441 5.56C756.004 4.37 754.528 3.19 752.882 2.27C751.247 1.35 749.401 0.739999 747.506 0.649999C743.736 0.449999 739.806 1.92 737.172 4.86C736.594 5.55 736.674 5.9 737.162 5.41C739.297 3.24 742.399 1.75 745.741 1.55C747.406 1.43 749.122 1.68 750.708 2.29C752.304 2.93 753.81 3.92 755.266 5.06C758.149 7.3 761.042 10.14 764.782 11.33C768.463 12.49 772.393 12.04 775.405 10.42C776.452 9.87 777.43 9.18 778.308 8.39C779.205 7.59 779.924 6.65 780.652 5.76C782.018 3.92 783.824 2.54 785.958 1.77C788.063 0.999999 790.397 0.829999 792.591 1.31C794.796 1.77 796.771 3 798.576 4.4C800.391 5.8 802.087 7.4 803.992 8.77C805.877 10.15 808.072 11.22 810.416 11.56C812.74 11.93 815.154 11.69 817.338 10.84C819.523 9.99 821.458 8.57 822.914 6.77C823.423 6.14 823.612 5.6 823.562 5.42C823.473 5.25 823.203 5.43 822.645 6.07Z" fill="#C0CCDA"/>
<path d="M866.303 5.65C863.64 8.59 859.9 10.66 855.87 10.67C853.686 10.69 851.511 10.14 849.586 9.04C847.631 7.97 845.885 6.47 844.07 5.03C842.554 3.83 840.988 2.67 839.252 1.83C837.527 0.970004 835.602 0.550004 833.706 0.560004C829.926 0.620004 826.196 2.23 823.572 5.19C823.273 5.53 823.423 5.79 823.702 5.57C826.076 3.6 829.198 1.92 832.749 1.59C834.504 1.44 836.3 1.63 837.936 2.27C839.582 2.89 841.058 3.88 842.354 4.87C844.16 6.27 845.875 7.86 847.831 9.18C849.766 10.52 852.04 11.48 854.414 11.71C856.778 11.97 859.212 11.61 861.366 10.62C863.521 9.64 865.386 8.08 866.702 6.17C867.151 5.5 866.862 5.01 866.303 5.65Z" fill="#C0CCDA"/>
<path d="M952.364 6.07C949.731 9.06 945.801 10.83 941.831 10.61C939.846 10.52 937.911 9.98 936.166 9C934.4 8.04 932.804 6.69 931.178 5.34C929.403 3.87 927.567 2.32 925.363 1.27C923.169 0.179999 920.615 -0.190001 918.211 0.159999C915.797 0.489999 913.483 1.46 911.598 3.01C909.683 4.64 908.656 6.75 906.92 8.11C904.127 10.54 900.267 11.52 896.656 10.92C894.841 10.64 893.125 9.93 891.569 8.94C890.003 7.97 888.577 6.76 887.131 5.57C885.694 4.38 884.218 3.2 882.582 2.28C880.946 1.36 879.101 0.749999 877.206 0.669999C873.435 0.469999 869.515 1.94 866.872 4.88C866.294 5.57 866.373 5.92 866.862 5.43C868.997 3.27 872.089 1.77 875.44 1.57C877.106 1.45 878.822 1.7 880.408 2.31C882.004 2.95 883.51 3.94 884.956 5.08C887.839 7.32 890.731 10.16 894.472 11.35C898.152 12.52 902.082 12.06 905.095 10.46C906.142 9.91 907.12 9.22 907.997 8.42C908.895 7.63 909.613 6.68 910.331 5.79C911.05 4.9 911.788 4.05 912.705 3.42C913.613 2.76 914.611 2.23 915.668 1.84C917.772 1.07 920.107 0.869999 922.301 1.33C924.505 1.78 926.48 3.02 928.286 4.41C930.101 5.81 931.787 7.41 933.702 8.77C935.587 10.15 937.782 11.22 940.126 11.56C942.45 11.93 944.863 11.69 947.048 10.84C949.232 9.99 951.167 8.57 952.614 6.77C953.122 6.14 953.312 5.6 953.262 5.42C953.192 5.25 952.923 5.43 952.364 6.07Z" fill="#C0CCDA"/>
<path d="M1039.04 6.07C1036.41 9.06 1032.47 10.83 1028.5 10.61C1026.52 10.52 1024.57 9.98 1022.83 8.99C1021.07 8.02 1019.47 6.68 1017.85 5.33C1016.07 3.86 1014.24 2.31 1012.02 1.26C1009.82 0.2 1007.29 -0.21 1004.87 0.11C1002.46 0.43 1000.12 1.42 998.257 3C997.789 3.4 997.36 3.83 996.961 4.29C996.572 4.76 996.193 5.27 995.893 5.72C995.245 6.62 994.487 7.43 993.639 8.13C990.806 10.51 986.966 11.53 983.345 10.92C981.53 10.64 979.804 9.94 978.248 8.94C976.672 7.97 975.256 6.76 973.81 5.57C972.373 4.38 970.897 3.2 969.251 2.28C967.615 1.36 965.77 0.74 963.875 0.66C960.105 0.45 956.175 1.93 953.531 4.87C952.953 5.56 953.033 5.91 953.521 5.42C955.656 3.25 958.758 1.76 962.1 1.56C963.765 1.44 965.481 1.69 967.067 2.31C968.673 2.95 970.169 3.95 971.625 5.08C974.508 7.33 977.401 10.17 981.151 11.35C984.842 12.52 988.762 12.03 991.774 10.46C993.879 9.38 995.724 7.75 997.021 5.77C998.317 3.96 1000.19 2.57 1002.3 1.79C1004.4 1.01 1006.74 0.85 1008.93 1.33C1011.14 1.78 1013.12 3.01 1014.93 4.41C1016.74 5.81 1018.44 7.41 1020.34 8.78C1022.23 10.16 1024.42 11.23 1026.76 11.58C1029.09 11.95 1031.51 11.71 1033.69 10.86C1035.87 10.01 1037.81 8.59 1039.26 6.79C1039.77 6.16 1039.96 5.62 1039.91 5.44C1039.87 5.25 1039.6 5.43 1039.04 6.07Z" fill="#C0CCDA"/>
<path d="M1125.73 6.07C1123.1 9.06 1119.16 10.83 1115.2 10.61C1113.21 10.52 1111.28 9.98 1109.53 8.99C1107.77 8.02 1106.17 6.68 1104.55 5.33C1102.77 3.86 1100.94 2.31 1098.73 1.26C1096.54 0.180001 1093.99 -0.209999 1091.59 0.110001C1089.17 0.420001 1086.84 1.4 1084.98 2.99C1083.1 4.66 1082.08 6.76 1080.33 8.1C1077.52 10.51 1073.68 11.52 1070.05 10.91C1068.24 10.63 1066.51 9.93 1064.97 8.93C1063.39 7.96 1061.98 6.75 1060.53 5.56C1059.09 4.37 1057.62 3.19 1055.97 2.27C1054.33 1.35 1052.49 0.740001 1050.59 0.650001C1046.82 0.450001 1042.89 1.92 1040.26 4.86C1039.68 5.55 1039.76 5.9 1040.25 5.41C1042.39 3.24 1045.49 1.75 1048.83 1.55C1050.49 1.43 1052.21 1.68 1053.8 2.3C1055.4 2.94 1056.9 3.94 1058.35 5.07C1061.24 7.31 1064.13 10.15 1067.87 11.34C1071.55 12.5 1075.48 12.04 1078.49 10.44C1079.54 9.89 1080.53 9.21 1081.41 8.42C1082.3 7.63 1083.04 6.69 1083.75 5.79C1084.47 4.89 1085.19 4.03 1086.08 3.38C1086.98 2.71 1087.98 2.17 1089.03 1.78C1091.13 1.01 1093.46 0.840001 1095.66 1.31C1097.86 1.77 1099.84 3 1101.64 4.39C1103.46 5.79 1105.16 7.39 1107.06 8.76C1108.95 10.14 1111.14 11.21 1113.48 11.55C1115.81 11.92 1118.23 11.68 1120.41 10.83C1122.59 9.98 1124.53 8.56 1125.98 6.76C1126.49 6.13 1126.68 5.59 1126.63 5.41C1126.55 5.25 1126.28 5.43 1125.73 6.07Z" fill="#C0CCDA"/>
<path d="M1169.38 5.65C1166.72 8.59 1162.98 10.66 1158.95 10.67C1156.76 10.69 1154.59 10.14 1152.66 9.04C1150.71 7.97 1148.96 6.47 1147.15 5.03C1145.63 3.83 1144.07 2.67 1142.33 1.83C1140.6 0.970004 1138.68 0.550004 1136.78 0.560004C1133 0.620004 1129.27 2.23 1126.65 5.19C1126.35 5.53 1126.5 5.79 1126.78 5.57C1129.15 3.6 1132.28 1.92 1135.83 1.59C1137.58 1.44 1139.38 1.63 1141.01 2.28C1142.66 2.9 1144.14 3.88 1145.43 4.88C1147.24 6.28 1148.95 7.87 1150.91 9.19C1152.84 10.53 1155.12 11.49 1157.49 11.72C1159.86 11.98 1162.29 11.62 1164.44 10.63C1166.6 9.65 1168.46 8.09 1169.78 6.18C1170.23 5.5 1169.94 5.01 1169.38 5.65Z" fill="#C0CCDA"/>
</g>
<defs>
<clipPath id="clip0">
<rect width="1170" height="12" fill="white"/>
</clipPath>
</defs>
</svg>
