<svg width="25" height="24" viewBox="0 0 25 24" fill="none" xmlns="http://www.w3.org/2000/svg">
<path fill-rule="evenodd" clip-rule="evenodd" d="M3 12C3 6.47715 7.47715 2 13 2C18.5228 2 23 6.47715 23 12C23 17.5228 18.5228 22 13 22C7.47715 22 3 17.5228 3 12ZM13 0C6.37258 0 1 5.37258 1 12C1 18.6274 6.37258 24 13 24C19.6274 24 25 18.6274 25 12C25 5.37258 19.6274 0 13 0ZM12 7C12 6.44772 12.4477 6 13 6C13.5523 6 14 6.44772 14 7C14 7.55228 13.5523 8 13 8C12.4477 8 12 7.55228 12 7ZM13 18C13.5523 18 14 17.5523 14 17V10.9996C14 10.4473 13.5523 9.99958 13 9.99958C12.4477 9.99958 12 10.4473 12 10.9996V17C12 17.5523 12.4477 18 13 18Z" fill="#00ABB4"/>
</svg>
