<svg width="60" height="60" viewBox="0 0 60 60" fill="none" xmlns="http://www.w3.org/2000/svg">
<g clip-path="url(#clip0)">
<path d="M36.3743 8.01575C36.3798 10.7194 34.8211 13.1819 32.3755 14.3337H26.3775C23.6752 13.0505 22.0877 10.1922 22.4263 7.21994C22.765 4.24813 24.9556 1.81998 27.8766 1.17793C28.37 1.07313 28.8724 1.01959 29.3763 1.01776C31.2324 1.01776 33.0121 1.75545 34.3246 3.06746C35.637 4.37993 36.3743 6.16008 36.3743 8.01575Z" fill="#A4C2F7"/>
<path d="M33.375 8.01574C33.3809 10.7194 31.8223 13.1819 29.3763 14.3337H26.3774C23.6752 13.0505 22.0877 10.1922 22.4263 7.21993C22.765 4.24812 24.9556 1.81996 27.8766 1.17792C31.0882 1.88266 33.3764 4.72771 33.375 8.01574Z" fill="#E3E7F2"/>
<path opacity="0.1" d="M50.3698 28.1796V44.0047C50.3698 44.0047 50.3698 49.3932 46.9609 52.5124C46.5752 52.8826 46.361 53.397 46.3711 53.9319V57.0008C46.3679 58.1037 45.4746 58.9969 44.3717 59.0001H28.3768C27.2739 58.9969 26.3807 58.1037 26.3775 57.0008V56.631C26.3793 55.0284 25.734 53.4926 24.5877 52.3724C22.6583 50.4929 19.6792 47.2438 18.3796 44.0047C16.3802 39.0065 12.3815 32.0085 10.3821 30.0092C8.38276 28.0098 10.3821 26.0105 12.3815 26.0105C14.3808 26.0105 18.3796 30.0092 20.3789 33.0084C21.015 33.9731 21.76 34.8623 22.5984 35.6576C23.0958 36.1203 23.7951 36.2974 24.4527 36.1272C25.1108 35.9574 25.6366 35.4636 25.8475 34.8179C26.2283 33.5851 26.4072 32.2987 26.3775 31.0086V8.01575C26.3711 6.74493 27.1751 5.61139 28.3768 5.19678C28.6958 5.07551 29.0349 5.01465 29.3763 5.01694C31.0329 5.01694 32.3755 6.35961 32.3755 8.01575V20.0124C32.3696 18.7411 33.1736 17.6076 34.3749 17.193C34.6943 17.0721 35.033 17.0108 35.3744 17.0131C37.031 17.0131 38.3736 18.3558 38.3736 20.0124V23.0112C38.3736 22.2158 38.6903 21.4534 39.2532 20.8919C39.5662 20.5739 39.9501 20.3341 40.373 20.1922C40.6924 20.071 41.0315 20.0101 41.3729 20.0124C43.029 20.0124 44.3717 21.355 44.3717 23.0112V28.0098C44.3717 27.2145 44.6884 26.4521 45.2517 25.8906C45.5647 25.5725 45.9482 25.3327 46.3711 25.1904C46.761 25.0472 47.1769 24.9895 47.5906 25.0206C49.1969 25.1922 50.4046 26.5646 50.3698 28.1796Z" fill="#57565C"/>
<path d="M50.3697 28.1796V44.0047C50.3697 44.0047 50.3697 49.3932 46.9609 52.5124C46.5751 52.8826 46.361 53.397 46.371 53.9319V57.0008C46.3678 58.1037 45.4745 58.9969 44.3717 59.0001H41.3729C42.4757 58.9969 43.369 58.1037 43.3722 57.0008V53.9319C43.3622 53.397 43.5759 52.8826 43.9621 52.5124C47.3709 49.3932 47.3709 44.0047 47.3709 44.0047V28.1796C47.3801 27.063 46.8081 26.0224 45.8612 25.4306C46.0214 25.3304 46.1926 25.2499 46.371 25.1904C46.7609 25.0472 47.1769 24.9895 47.5906 25.0206C49.1969 25.1922 50.4045 26.5646 50.3697 28.1796Z" fill="#A4C2F7"/>
<path d="M22.4387 35.5076C22.0895 35.9158 21.588 36.1633 21.0512 36.1917C20.5144 36.2201 19.9895 36.027 19.5996 35.6577C18.7608 34.8623 18.0162 33.9731 17.3801 33.0085C15.7807 30.5991 12.8812 27.5499 10.772 26.4402C11.2635 26.1633 11.8172 26.0155 12.3815 26.0105C14.3808 26.0105 18.3796 30.0092 20.3789 33.0085C20.9775 33.9104 21.6676 34.7479 22.4387 35.5076Z" fill="#A4C2F7"/>
<path d="M22.3787 8.01575C22.3728 10.7194 23.9315 13.1819 26.3775 14.3337V31.0086C26.4072 32.2987 26.2283 33.585 25.8475 34.8179C25.7578 35.07 25.6183 35.302 25.4375 35.4993C25.4915 35.5514 25.5464 35.6096 25.5977 35.6576C26.0951 36.1203 26.7944 36.2974 27.452 36.1271C28.11 35.9574 28.6354 35.4636 28.8463 34.8179C29.2271 33.585 29.406 32.2987 29.3763 31.0086V14.3337C26.6767 13.051 25.0902 10.195 25.427 7.22497C25.7638 4.25499 27.9494 1.82684 30.8681 1.18113C30.378 1.07313 29.8778 1.01868 29.3763 1.01776C28.8724 1.01959 28.37 1.07313 27.8766 1.17793C24.6655 1.88267 22.3774 4.72772 22.3787 8.01575Z" fill="white"/>
<path d="M10.3821 30.0092C12.3815 32.0085 16.3802 39.0065 18.3795 44.0047C19.6792 47.2438 22.6583 50.4929 24.5877 52.3724C25.734 53.4926 26.3793 55.0284 26.3774 56.631V57.0008C26.3806 58.1037 27.2739 58.9969 28.3768 59.0001H31.3756C30.2727 58.9969 29.3795 58.1037 29.3763 57.0008V56.631C29.3785 55.0284 28.7333 53.4926 27.5869 52.3724C25.6576 50.4929 22.6785 47.2438 21.3788 44.0047C19.3794 39.0065 15.3807 32.0085 13.3814 30.0092C12.7942 29.5662 12.4844 28.8464 12.5663 28.1151C12.6483 27.3843 13.1105 26.7509 13.7813 26.4493C13.3553 26.1958 12.8757 26.0457 12.3815 26.0105C12.2478 26.0109 12.1142 26.0201 11.9815 26.0384C11.9426 26.0434 11.9046 26.0526 11.8657 26.0594C11.7737 26.0745 11.6817 26.0915 11.5907 26.1153C11.5358 26.1294 11.4827 26.1473 11.4287 26.1642C11.3747 26.1812 11.2937 26.2063 11.2287 26.2324C11.1637 26.2585 11.0781 26.2942 11.004 26.3322C10.9729 26.3464 10.9431 26.3601 10.9129 26.3761C10.8672 26.3994 10.8182 26.4182 10.7729 26.4434L10.7839 26.4502C10.1135 26.7518 9.65127 27.3847 9.5689 28.1151C9.48652 28.8459 9.79542 29.5658 10.3821 30.0092Z" fill="white"/>
<path d="M11.0891 29.3021C11.8657 30.1496 12.5682 31.0621 13.1883 32.0296C13.8051 32.9521 14.3772 33.8921 14.9309 34.8408C16.0383 36.7399 17.0561 38.6784 18.002 40.6626C18.4605 41.6388 18.9017 42.6263 19.3062 43.634L17.451 44.3758C17.0611 43.4171 16.6392 42.4634 16.1944 41.5175C15.2769 39.5913 14.2802 37.6917 13.2034 35.8484C12.6666 34.9268 12.1106 34.0147 11.5239 33.1384C10.9752 32.2813 10.3565 31.4713 9.67462 30.7157L11.0891 29.3021Z" fill="white"/>
<path d="M15.6805 36.1615C15.5468 35.9299 15.3308 35.7578 15.0759 35.6782L14.8869 35.6466C14.8201 35.6411 14.7529 35.6448 14.687 35.6576C14.6234 35.6604 14.5607 35.6732 14.5007 35.6942C14.4385 35.718 14.3772 35.745 14.3181 35.7761C14.0911 35.9107 13.9223 36.1244 13.844 36.3761C13.8115 36.5029 13.8033 36.6346 13.8202 36.7642C13.871 37.1586 14.147 37.4872 14.5268 37.6057C14.6536 37.6391 14.7858 37.6478 14.9158 37.6318C15.0462 37.6199 15.173 37.5824 15.2887 37.522C15.5249 37.3966 15.7001 37.1806 15.7747 36.9234C15.8489 36.6667 15.8155 36.3903 15.6828 36.1583L15.6805 36.1615Z" fill="#006DF0"/>
<path d="M8.76988 27.23C8.30631 28.4665 8.66829 29.8613 9.67552 30.7157C10.5143 31.6584 11.2676 32.6739 11.9266 33.7498C12.2259 34.2069 12.834 34.3429 13.2994 34.0568C13.5255 33.915 13.6857 33.6889 13.7438 33.4285C13.8024 33.1681 13.7543 32.8949 13.6102 32.6702C12.8757 31.4722 12.0318 30.3446 11.0891 29.3021C10.6132 28.8267 10.4539 28.3864 10.6159 27.9947C10.9784 27.3668 11.6566 26.9884 12.3815 27.0099C13.7401 27.0099 17.424 30.378 19.5474 33.5631C20.2251 34.5909 21.0177 35.5382 21.9096 36.3871C22.4588 36.906 23.1855 37.1957 23.941 37.1961C25.237 37.1939 26.3861 36.3637 26.7962 35.1346C27.2098 33.7992 27.4062 32.4062 27.3769 31.0086V8.01575C27.3769 6.9115 28.272 6.01639 29.3762 6.01639C30.4805 6.01639 31.3756 6.9115 31.3756 8.01575V29.0093C31.3756 29.5616 31.8232 30.0092 32.3755 30.0092C32.9274 30.0092 33.375 29.5616 33.375 29.0093V20.0124C33.375 18.9081 34.2705 18.013 35.3743 18.013C36.4786 18.013 37.3741 18.9081 37.3741 20.0124V29.0093C37.3741 29.5616 37.8217 30.0092 38.3736 30.0092C38.9259 30.0092 39.3735 29.5616 39.3735 29.0093V23.0112C39.3735 21.9069 40.2686 21.0118 41.3729 21.0118C42.4771 21.0118 43.3722 21.9069 43.3722 23.0112V30.0092C43.3722 30.5611 43.8198 31.0086 44.3717 31.0086C44.924 31.0086 45.3716 30.5611 45.3716 30.0092V28.0098C45.3702 27.4794 45.5816 26.9705 45.9583 26.5971C46.3706 26.1885 46.9385 25.9766 47.5178 26.0155C48.5978 26.1564 49.3968 27.09 49.3703 28.1787V44.0047C49.3703 44.0536 49.3195 49.0033 46.2873 51.7747C45.6947 52.3334 45.3624 53.1151 45.3716 53.9296V57.0007C45.3716 57.5531 44.924 58.0007 44.3717 58.0007H28.3768C27.8244 58.0007 27.3769 57.5531 27.3769 57.0007V56.6351C27.3783 54.7611 26.6255 52.9654 25.2887 51.6525C23.5951 50.0082 20.5661 46.7779 19.3085 43.6331C18.8994 42.6259 18.4642 41.636 18.0038 40.664L17.5631 39.7511C17.4455 39.5117 17.2378 39.3296 16.9852 39.2445C16.7325 39.1589 16.4566 39.1781 16.2182 39.2971C15.7308 39.5456 15.5304 40.1378 15.7674 40.6311L16.1962 41.5184C16.6415 42.4643 17.0629 43.418 17.4519 44.3758C18.7777 47.6886 21.6886 50.9409 23.8971 53.0862C24.8476 54.0221 25.3812 55.3011 25.3775 56.6351V57.0007C25.3775 58.6573 26.7202 60 28.3768 60H44.3717C46.0283 60 47.3709 58.6573 47.3709 57.0007V53.9296C47.3618 53.6756 47.4583 53.429 47.6377 53.2491C51.3276 49.8751 51.3697 44.2426 51.3697 44.0047V28.1787C51.4067 26.0379 49.7927 24.228 47.662 24.0212C46.8611 23.9685 46.063 24.1584 45.3716 24.5657V23.0112C45.3798 21.5706 44.6083 20.2384 43.3544 19.5287C42.1009 18.8189 40.5615 18.8427 39.3305 19.5913C39.2023 18.2427 38.3924 17.0538 37.1847 16.4411C35.9766 15.8283 34.5392 15.8764 33.375 16.5692V14.9135C35.8562 13.5054 37.3847 10.8686 37.3741 8.01575C37.3741 3.59876 33.7932 0.0183105 29.3762 0.0183105C24.9593 0.0183105 21.3788 3.59876 21.3788 8.01575C21.3683 10.8686 22.8967 13.5054 25.3775 14.9135V31.0086C25.4059 32.1888 25.2453 33.3654 24.9016 34.4948C24.7945 34.8284 24.5213 35.0828 24.1808 35.1666C23.8605 35.2476 23.5209 35.1583 23.2811 34.9305C22.5004 34.1859 21.8067 33.3549 21.2141 32.4533C19.4792 29.8581 15.1139 25.0105 12.3815 25.0105C10.8466 24.9785 9.43481 25.8462 8.76988 27.23ZM23.3782 8.01575C23.3782 4.70301 26.0635 2.01767 29.3762 2.01767C32.689 2.01767 35.3743 4.70301 35.3743 8.01575C35.3839 9.72635 34.6554 11.3578 33.375 12.4927V8.01575C33.375 5.80725 31.5847 4.01703 29.3762 4.01703C27.1677 4.01703 25.3775 5.80725 25.3775 8.01575V12.4927C24.0975 11.3578 23.3686 9.72635 23.3782 8.01575Z" fill="black"/>
<path d="M47.3709 42.0053V36.0073C47.3709 35.4554 46.9234 35.0078 46.371 35.0078C45.8191 35.0078 45.3716 35.4554 45.3716 36.0073V42.0053C45.3716 42.5577 45.8191 43.0052 46.371 43.0052C46.9234 43.0052 47.3709 42.5577 47.3709 42.0053Z" fill="#006DF0"/>
<path d="M44.6646 47.2969C44.4046 47.5481 44.3007 47.9197 44.3923 48.2693C44.4838 48.6185 44.7565 48.8917 45.1062 48.9832C45.4558 49.0747 45.8274 48.9704 46.0782 48.7105C46.8387 48.0066 47.3014 47.0383 47.3709 46.0041C47.37 45.4641 46.9353 45.0252 46.3953 45.0188C45.8493 45.0083 45.3949 45.4357 45.3716 45.9812C45.2965 46.4887 45.0467 46.9541 44.6646 47.2969Z" fill="#006DF0"/>
<path d="M31.3756 56.0013C31.928 56.0013 32.3755 55.5537 32.3755 55.0014C32.3755 54.4495 31.928 54.002 31.3756 54.002H30.3762C29.8238 54.002 29.3763 54.4495 29.3763 55.0014C29.3763 55.5537 29.8238 56.0013 30.3762 56.0013H31.3756Z" fill="#428DFF"/>
<path d="M42.3723 56.0013C42.9246 56.0013 43.3722 55.5537 43.3722 55.0014C43.3722 54.4495 42.9246 54.002 42.3723 54.002H35.3743C34.8224 54.002 34.3748 54.4495 34.3748 55.0014C34.3748 55.5537 34.8224 56.0013 35.3743 56.0013H42.3723Z" fill="#006DF0"/>
<path d="M21.3788 16.5523C21.7779 16.5523 22.1385 16.3157 22.2968 15.9496C22.4551 15.5835 22.381 15.1583 22.1078 14.8678C18.6441 11.2068 18.456 5.53726 21.6699 1.65477C21.9074 1.38066 21.9778 0.999456 21.8543 0.658526C21.7303 0.317596 21.4314 0.070479 21.0731 0.0128184C20.7148 -0.0448422 20.3537 0.096106 20.129 0.381206C16.274 5.03982 16.4973 11.8419 20.6503 16.2374C20.8393 16.4383 21.1029 16.5523 21.3788 16.5523Z" fill="#006DF0"/>
<path d="M38.7068 13.904C38.9424 14.0248 39.217 14.0472 39.4692 13.9658C39.7218 13.8843 39.9314 13.7063 40.0522 13.4702C42.2378 9.21427 41.6758 4.06508 38.6235 0.381206C38.3992 0.096106 38.0377 -0.0448422 37.6794 0.0128184C37.3215 0.070479 37.0227 0.317596 36.8987 0.658526C36.7747 0.999456 36.8451 1.38066 37.0831 1.65477C39.6266 4.7236 40.0947 9.01337 38.2738 12.5586C38.0217 13.0496 38.2157 13.6519 38.7068 13.904Z" fill="#006DF0"/>
</g>
<defs>
<clipPath id="clip0">
<rect width="60" height="60" fill="white"/>
</clipPath>
</defs>
</svg>
